<svg xmlns="http://www.w3.org/2000/svg" viewBox="0 0 500 500"><g id="freepik--Clouds--inject-4"><path d="M447.83,192.39c-3.61-2-5.26-.33-6.57-2s3.61-5.91-6.24-10.18c0,0-.66-9.19-14.12-9.52s-9.85,9.19-13.46,11.49-4.6-1.31-8.21,1-2,6.89-4.92,7.55c-2.7.6-6.21-2.34-9.55-1.12a49.91,49.91,0,0,0-4.6-10.65c-12.19-20.93-38.77-30.58-59.58-36.47-66.23-18.73-82.25,27.26-123.3,52.59s-89.3,2-112.74,20.19-31.26,63.38-19.82,84.22,36.74,27.63,40.65,37.62,2.69,13.26,2.69,13.26h307c2.4,0,8.74-12.85,10-15.35,7.08-14.21,7.94-28.31-4.49-39.23-12-10.54-32.75-17.17-34.21-36.76s3.56-41.86.17-61.73h63.9S451.44,194.36,447.83,192.39ZM195.18,306.3H112.11s2.3-1.64,4.27-3,5.25,0,6.89,0,1.64-2,5.26-4.26,7.55,1.31,10.5.65,1.32-5.25,4.93-7.55,4.6,1.31,8.21-1,0-11.83,13.46-11.5,14.12,9.53,14.12,9.53c9.85,4.26,4.92,8.53,6.24,10.17s2.95,0,6.57,2S195.18,306.3,195.18,306.3ZM329.91,160.07H276.6s1.47-1,2.74-1.89,3.37,0,4.42,0,1.06-1.27,3.37-2.74,4.85.84,6.75.42.84-3.37,3.16-4.85,2.95.84,5.27-.63,0-7.59,8.64-7.38,9.06,6.11,9.06,6.11c6.32,2.74,3.16,5.48,4,6.54s1.9,0,4.22,1.26S329.91,160.07,329.91,160.07Z" style="fill:#16A34A"></path><path d="M231.83,109c-3.62-2-5.26-.33-6.57-2s3.61-5.91-6.24-10.18c0,0-.66-9.19-14.12-9.52s-9.85,9.19-13.46,11.49-4.6-1.31-8.21,1-2,6.89-4.93,7.55-6.89-3-10.5-.66-3.62,4.27-5.26,4.27-4.92-1.31-6.89,0-4.27,3-4.27,3h83.07S235.44,111,231.83,109Z" style="fill:#16A34A"></path><g style="opacity:0.7000000000000001"><path d="M447.83,192.39c-3.61-2-5.26-.33-6.57-2s3.61-5.91-6.24-10.18c0,0-.66-9.19-14.12-9.52s-9.85,9.19-13.46,11.49-4.6-1.31-8.21,1-2,6.89-4.92,7.55c-2.7.6-6.21-2.34-9.55-1.12a49.91,49.91,0,0,0-4.6-10.65c-12.19-20.93-38.77-30.58-59.58-36.47-66.23-18.73-82.25,27.26-123.3,52.59s-89.3,2-112.74,20.19-31.26,63.38-19.82,84.22,36.74,27.63,40.65,37.62,2.69,13.26,2.69,13.26h307c2.4,0,8.74-12.85,10-15.35,7.08-14.21,7.94-28.31-4.49-39.23-12-10.54-32.75-17.17-34.21-36.76s3.56-41.86.17-61.73h63.9S451.44,194.36,447.83,192.39ZM195.18,306.3H112.11s2.3-1.64,4.27-3,5.25,0,6.89,0,1.64-2,5.26-4.26,7.55,1.31,10.5.65,1.32-5.25,4.93-7.55,4.6,1.31,8.21-1,0-11.83,13.46-11.5,14.12,9.53,14.12,9.53c9.85,4.26,4.92,8.53,6.24,10.17s2.95,0,6.57,2S195.18,306.3,195.18,306.3ZM329.91,160.07H276.6s1.47-1,2.74-1.89,3.37,0,4.42,0,1.06-1.27,3.37-2.74,4.85.84,6.75.42.84-3.37,3.16-4.85,2.95.84,5.27-.63,0-7.59,8.64-7.38,9.06,6.11,9.06,6.11c6.32,2.74,3.16,5.48,4,6.54s1.9,0,4.22,1.26S329.91,160.07,329.91,160.07Z" style="fill:#fff"></path><path d="M231.83,109c-3.62-2-5.26-.33-6.57-2s3.61-5.91-6.24-10.18c0,0-.66-9.19-14.12-9.52s-9.85,9.19-13.46,11.49-4.6-1.31-8.21,1-2,6.89-4.93,7.55-6.89-3-10.5-.66-3.62,4.27-5.26,4.27-4.92-1.31-6.89,0-4.27,3-4.27,3h83.07S235.44,111,231.83,109Z" style="fill:#fff"></path></g></g><g id="freepik--House--inject-4"><polygon points="441.74 285.82 451.5 311.97 444.85 311.97 438.2 291.58 441.74 285.82" style="fill:#fff;stroke:#2e353a;stroke-linecap:round;stroke-linejoin:round;stroke-width:0.887535px"></polygon><polygon points="447.06 350.39 359.15 350.39 359.15 305.47 440.77 293 447.06 310.34 447.06 350.39" style="fill:#2e353a"></polygon><rect x="256.6" y="214.45" width="114.66" height="135.94" style="fill:#2e353a"></rect><polygon points="249.54 225.44 244.66 219.12 314.57 165.15 383.2 218.14 378.33 224.46 314.57 175.23 249.54 225.44" style="fill:#2e353a"></polygon><rect x="235.62" y="214.45" width="114.66" height="135.94" style="fill:#fff;stroke:#2e353a;stroke-linecap:round;stroke-linejoin:round;stroke-width:0.887535px"></rect><polygon points="292.95 170.19 235.62 214.45 350.28 214.45 292.95 170.19" style="fill:#fff;stroke:#2e353a;stroke-linejoin:round;stroke-width:0.887535px"></polygon><polygon points="292.95 170.19 235.62 214.45 235.62 224.53 248.68 214.45 292.95 180.27 337.23 214.45 350.28 224.53 350.28 214.45 292.95 170.19" style="fill:#16A34A;mix-blend-mode:multiply"></polygon><rect x="350.28" y="305.47" width="87.92" height="44.92" style="fill:#fff;stroke:#2e353a;stroke-linecap:round;stroke-linejoin:round;stroke-width:0.887535px"></rect><rect x="359.15" y="305.47" width="70.19" height="44.92" style="fill:#16A34A;stroke:#2e353a;stroke-linecap:round;stroke-linejoin:round;stroke-width:0.887535px"></rect><rect x="350.28" y="305.47" width="87.92" height="9.63" style="fill:#16A34A;mix-blend-mode:multiply"></rect><line x1="359.15" y1="318.62" x2="429.33" y2="318.62" style="fill:none;stroke:#2e353a;stroke-linecap:round;stroke-linejoin:round;stroke-width:0.887535px"></line><line x1="359.15" y1="325.27" x2="429.33" y2="325.27" style="fill:none;stroke:#2e353a;stroke-linecap:round;stroke-linejoin:round;stroke-width:0.887535px"></line><line x1="359.15" y1="331.92" x2="429.33" y2="331.92" style="fill:none;stroke:#2e353a;stroke-linecap:round;stroke-linejoin:round;stroke-width:0.887535px"></line><line x1="359.15" y1="338.57" x2="429.33" y2="338.57" style="fill:none;stroke:#2e353a;stroke-linecap:round;stroke-linejoin:round;stroke-width:0.887535px"></line><line x1="359.15" y1="345.22" x2="429.33" y2="345.22" style="fill:none;stroke:#2e353a;stroke-linecap:round;stroke-linejoin:round;stroke-width:0.887535px"></line><rect x="245.08" y="300.15" width="23.05" height="50.24" style="fill:#2e353a"></rect><rect x="280.24" y="300.15" width="23.05" height="34.87" style="fill:#fff;stroke:#2e353a;stroke-linecap:round;stroke-linejoin:round;stroke-width:0.887535px"></rect><rect x="280.24" y="316.11" width="23.05" height="2.96" style="fill:#2e353a"></rect><rect x="290.29" y="300.15" width="2.96" height="34.87" style="fill:#2e353a"></rect><rect x="322.5" y="300.15" width="23.05" height="34.87" style="fill:#fff;stroke:#2e353a;stroke-linecap:round;stroke-linejoin:round;stroke-width:0.887535px"></rect><rect x="322.5" y="316.11" width="23.05" height="2.96" style="fill:#2e353a"></rect><rect x="332.55" y="300.15" width="2.96" height="34.87" style="fill:#2e353a"></rect><rect x="311.43" y="300.15" width="4.42" height="50.24" style="fill:#fff;stroke:#2e353a;stroke-linecap:round;stroke-linejoin:round;stroke-width:0.887535px"></rect><rect x="272.79" y="300.15" width="4.42" height="50.24" style="fill:#fff;stroke:#2e353a;stroke-linecap:round;stroke-linejoin:round;stroke-width:0.887535px"></rect><rect x="240.94" y="302.22" width="104.61" height="6.5" style="fill:#2e353a"></rect><rect x="240.94" y="298.97" width="104.61" height="6.5" style="fill:#16A34A;stroke:#2e353a;stroke-linecap:round;stroke-linejoin:round;stroke-width:0.887535px"></rect><polygon points="227.92 225.44 223.04 219.12 292.95 165.15 361.58 218.14 356.71 224.46 292.95 175.23 227.92 225.44" style="fill:#fff;stroke:#2e353a;stroke-linejoin:round;stroke-width:0.887535px"></polygon><polygon points="438.2 311.97 341.54 311.97 350.41 285.82 441.74 285.82 438.2 311.97" style="fill:#2e353a"></polygon><polygon points="361.58 218.14 381.38 218.14 314.57 165.15 292.95 165.15 361.58 218.14" style="fill:#2e353a"></polygon><polygon points="356.71 224.46 378.33 224.46 383.2 218.14 361.58 218.14 356.71 224.46" style="fill:#2e353a"></polygon><rect x="245.08" y="234.55" width="12.41" height="20.1" style="fill:#fff;stroke:#2e353a;stroke-linecap:round;stroke-linejoin:round;stroke-width:0.887535px"></rect><rect x="245.08" y="244.6" width="12.41" height="10.05" style="fill:#2e353a"></rect><rect x="245.08" y="243.48" width="12.41" height="2.24" style="fill:#fff;stroke:#2e353a;stroke-linecap:round;stroke-linejoin:round;stroke-width:0.887535px"></rect><rect x="245.08" y="263.51" width="12.41" height="20.1" style="fill:#fff;stroke:#2e353a;stroke-linecap:round;stroke-linejoin:round;stroke-width:0.887535px"></rect><rect x="245.08" y="273.46" width="12.41" height="10.14" style="fill:#2e353a"></rect><rect x="329" y="234.55" width="12.41" height="20.1" style="fill:#fff;stroke:#2e353a;stroke-linecap:round;stroke-linejoin:round;stroke-width:0.887535px"></rect><rect x="329" y="244.6" width="12.41" height="10.05" style="fill:#2e353a"></rect><rect x="329" y="263.51" width="12.41" height="20.1" style="fill:#fff;stroke:#2e353a;stroke-linecap:round;stroke-linejoin:round;stroke-width:0.887535px"></rect><rect x="329" y="272.34" width="12.41" height="11.26" style="fill:#2e353a"></rect><rect x="285.56" y="234.55" width="12.41" height="20.1" style="fill:#fff;stroke:#2e353a;stroke-linecap:round;stroke-linejoin:round;stroke-width:0.887535px"></rect><rect x="285.56" y="244.6" width="12.41" height="10.05" style="fill:#2e353a"></rect><rect x="285.56" y="263.51" width="12.41" height="20.1" style="fill:#fff;stroke:#2e353a;stroke-linecap:round;stroke-linejoin:round;stroke-width:0.887535px"></rect><rect x="285.56" y="272.34" width="12.41" height="11.26" style="fill:#2e353a"></rect><rect x="285.56" y="243.48" width="12.41" height="2.24" style="fill:#fff;stroke:#2e353a;stroke-linecap:round;stroke-linejoin:round;stroke-width:0.887535px"></rect><rect x="329" y="243.48" width="12.41" height="2.24" style="fill:#fff;stroke:#2e353a;stroke-linecap:round;stroke-linejoin:round;stroke-width:0.887535px"></rect><rect x="245.08" y="271.22" width="12.41" height="2.24" style="fill:#fff;stroke:#2e353a;stroke-linecap:round;stroke-linejoin:round;stroke-width:0.887535px"></rect><rect x="285.56" y="271.22" width="12.41" height="2.24" style="fill:#fff;stroke:#2e353a;stroke-linecap:round;stroke-linejoin:round;stroke-width:0.887535px"></rect><rect x="329" y="271.22" width="12.41" height="2.24" style="fill:#fff;stroke:#2e353a;stroke-linecap:round;stroke-linejoin:round;stroke-width:0.887535px"></rect><line x1="245.73" y1="220.51" x2="245.73" y2="225.44" style="fill:none;stroke:#2e353a;stroke-linecap:round;stroke-linejoin:round;stroke-width:0.887535px"></line><line x1="254.6" y1="220.51" x2="254.6" y2="225.44" style="fill:none;stroke:#2e353a;stroke-linecap:round;stroke-linejoin:round;stroke-width:0.887535px"></line><line x1="249.54" y1="225.44" x2="249.54" y2="230.37" style="fill:none;stroke:#2e353a;stroke-linecap:round;stroke-linejoin:round;stroke-width:0.887535px"></line><line x1="259.67" y1="225.44" x2="259.67" y2="230.37" style="fill:none;stroke:#2e353a;stroke-linecap:round;stroke-linejoin:round;stroke-width:0.887535px"></line><line x1="241.8" y1="225.44" x2="262.06" y2="225.44" style="fill:none;stroke:#2e353a;stroke-linecap:round;stroke-linejoin:round;stroke-width:0.887535px"></line><line x1="245.73" y1="286.36" x2="245.73" y2="291.29" style="fill:none;stroke:#2e353a;stroke-linecap:round;stroke-linejoin:round;stroke-width:0.887535px"></line><line x1="254.6" y1="286.36" x2="254.6" y2="291.29" style="fill:none;stroke:#2e353a;stroke-linecap:round;stroke-linejoin:round;stroke-width:0.887535px"></line><line x1="249.54" y1="291.29" x2="249.54" y2="296.22" style="fill:none;stroke:#2e353a;stroke-linecap:round;stroke-linejoin:round;stroke-width:0.887535px"></line><line x1="259.67" y1="291.29" x2="259.67" y2="296.22" style="fill:none;stroke:#2e353a;stroke-linecap:round;stroke-linejoin:round;stroke-width:0.887535px"></line><line x1="241.8" y1="291.29" x2="262.06" y2="291.29" style="fill:none;stroke:#2e353a;stroke-linecap:round;stroke-linejoin:round;stroke-width:0.887535px"></line><line x1="263.7" y1="239.66" x2="263.7" y2="244.6" style="fill:none;stroke:#2e353a;stroke-linecap:round;stroke-linejoin:round;stroke-width:0.887535px"></line><line x1="272.57" y1="239.66" x2="272.57" y2="244.6" style="fill:none;stroke:#2e353a;stroke-linecap:round;stroke-linejoin:round;stroke-width:0.887535px"></line><line x1="267.51" y1="244.6" x2="267.51" y2="249.53" style="fill:none;stroke:#2e353a;stroke-linecap:round;stroke-linejoin:round;stroke-width:0.887535px"></line><line x1="277.64" y1="244.6" x2="277.64" y2="249.53" style="fill:none;stroke:#2e353a;stroke-linecap:round;stroke-linejoin:round;stroke-width:0.887535px"></line><line x1="259.77" y1="244.6" x2="280.03" y2="244.6" style="fill:none;stroke:#2e353a;stroke-linecap:round;stroke-linejoin:round;stroke-width:0.887535px"></line><line x1="263.7" y1="249.53" x2="280.03" y2="249.53" style="fill:none;stroke:#2e353a;stroke-linecap:round;stroke-linejoin:round;stroke-width:0.887535px"></line><line x1="263.7" y1="249.71" x2="263.7" y2="254.64" style="fill:none;stroke:#2e353a;stroke-linecap:round;stroke-linejoin:round;stroke-width:0.887535px"></line><line x1="272.57" y1="249.71" x2="272.57" y2="254.64" style="fill:none;stroke:#2e353a;stroke-linecap:round;stroke-linejoin:round;stroke-width:0.887535px"></line><line x1="267.51" y1="254.64" x2="267.51" y2="259.57" style="fill:none;stroke:#2e353a;stroke-linecap:round;stroke-linejoin:round;stroke-width:0.887535px"></line><line x1="277.64" y1="254.64" x2="277.64" y2="259.57" style="fill:none;stroke:#2e353a;stroke-linecap:round;stroke-linejoin:round;stroke-width:0.887535px"></line><line x1="259.77" y1="254.64" x2="280.03" y2="254.64" style="fill:none;stroke:#2e353a;stroke-linecap:round;stroke-linejoin:round;stroke-width:0.887535px"></line><line x1="307.88" y1="272.56" x2="307.88" y2="277.49" style="fill:none;stroke:#2e353a;stroke-linecap:round;stroke-linejoin:round;stroke-width:0.887535px"></line><line x1="316.75" y1="272.56" x2="316.75" y2="277.49" style="fill:none;stroke:#2e353a;stroke-linecap:round;stroke-linejoin:round;stroke-width:0.887535px"></line><line x1="311.69" y1="277.49" x2="311.69" y2="282.42" style="fill:none;stroke:#2e353a;stroke-linecap:round;stroke-linejoin:round;stroke-width:0.887535px"></line><line x1="321.82" y1="277.49" x2="321.82" y2="282.42" style="fill:none;stroke:#2e353a;stroke-linecap:round;stroke-linejoin:round;stroke-width:0.887535px"></line><line x1="303.95" y1="277.49" x2="324.21" y2="277.49" style="fill:none;stroke:#2e353a;stroke-linecap:round;stroke-linejoin:round;stroke-width:0.887535px"></line><line x1="307.88" y1="282.42" x2="324.21" y2="282.42" style="fill:none;stroke:#2e353a;stroke-linecap:round;stroke-linejoin:round;stroke-width:0.887535px"></line><line x1="307.88" y1="282.61" x2="307.88" y2="287.54" style="fill:none;stroke:#2e353a;stroke-linecap:round;stroke-linejoin:round;stroke-width:0.887535px"></line><line x1="316.75" y1="282.61" x2="316.75" y2="287.54" style="fill:none;stroke:#2e353a;stroke-linecap:round;stroke-linejoin:round;stroke-width:0.887535px"></line><line x1="311.69" y1="287.54" x2="311.69" y2="292.47" style="fill:none;stroke:#2e353a;stroke-linecap:round;stroke-linejoin:round;stroke-width:0.887535px"></line><line x1="321.82" y1="287.54" x2="321.82" y2="292.47" style="fill:none;stroke:#2e353a;stroke-linecap:round;stroke-linejoin:round;stroke-width:0.887535px"></line><line x1="303.95" y1="287.54" x2="324.21" y2="287.54" style="fill:none;stroke:#2e353a;stroke-linecap:round;stroke-linejoin:round;stroke-width:0.887535px"></line></g><g id="freepik--Ground--inject-4"><path d="M70,364.32c19.66,8.13,70.18-.67,65,8.81s-44.75,5.92-56,16.17,39.93,9.43,38.12,12.54-46.84,5.24-43.88,9.43H376.66c.49-3.28-3-7.26-8.7-10-45.18-1.85-198.28-8.63-182.24-15.18,18.8-7.66,80.18-15.32,91.4-21.32s-38.48-6.67-46.8-9.33c-2.68-.86-3-1.7-2.13-2.43l1.43.09v-.91a39.47,39.47,0,0,1,7-1.83h-7v-1.73l-1,.63-1.71,1.1h-.55a33.16,33.16,0,0,0,1.42-6.66c.39-3.91-5.1,4.93-5.1,4.93s.78-3,0-4.93-3.14,2.61-3.14,2.61,2.75-10.85,0-17.9-5.85,17.9-5.85,17.9-.42-9.68-3.95-9.87c-2.86-.16-1.09,6.42-.31,8.92a10.93,10.93,0,0,0-2.62-3.7c-2.53-2.42,0,5.59,0,5.59s-1-2.38-7.61-3.55,2.7,5.18,2.7,5.18a83.12,83.12,0,0,0-8.71-2c-1.46-.24-1.58.12-1.1.72l-.95.61-3.06,2a41.61,41.61,0,0,0,2-9.06c.5-5-6.49,6.28-6.49,6.28s1-3.79,0-6.28-4,3.32-4,3.32,3.5-13.81,0-22.79-7.45,22.79-7.45,22.79-.54-12.31-5-12.56c-3.63-.2-1.4,8.11-.4,11.32a13.87,13.87,0,0,0-3.32-4.67c-3.23-3.08,0,7.11,0,7.11s-1.27-3-9.69-4.52,3.43,6.6,3.43,6.6a105.14,105.14,0,0,0-11.09-2.54c-5.6-.92,4.26,5.17,4.26,5.17H76S50.36,356.2,70,364.32ZM192.42,348a24.9,24.9,0,0,0,3.21,2.41h-3.21Z" style="fill:#16A34A"></path><path d="M312.57,365.53C301.21,370.79,273,376.31,273,376.31c-4.49.61,1.59,6.36,32.77,3.51l53.36-29.43H256.88c3.42,1.76,27.78,5.82,41.64,5.82S323.93,360.26,312.57,365.53Z" style="fill:#16A34A"></path><path d="M394.26,350.39h20.16C404.3,350,394.26,350.39,394.26,350.39Z" style="fill:#16A34A"></path><path d="M427.52,351.56l-47.89,30.86c6.07-.23,12.42-.38,18.57-.53,26.53-.64,16.9-12.15,18.7-16.21s16.86-3.39,18.06-10.16C435.3,353.6,432.17,352.36,427.52,351.56Z" style="fill:#16A34A"></path><g style="opacity:0.30000000000000004"><path d="M70,364.32c19.66,8.13,70.18-.67,65,8.81s-44.75,5.92-56,16.17,39.93,9.43,38.12,12.54-46.84,5.24-43.88,9.43H376.66c.49-3.28-3-7.26-8.7-10-45.18-1.85-198.28-8.63-182.24-15.18,18.8-7.66,80.18-15.32,91.4-21.32s-38.48-6.67-46.8-9.33c-2.68-.86-3-1.7-2.13-2.43l1.43.09v-.91a39.47,39.47,0,0,1,7-1.83h-7v-1.73l-1,.63-1.71,1.1h-.55a33.16,33.16,0,0,0,1.42-6.66c.39-3.91-5.1,4.93-5.1,4.93s.78-3,0-4.93-3.14,2.61-3.14,2.61,2.75-10.85,0-17.9-5.85,17.9-5.85,17.9-.42-9.68-3.95-9.87c-2.86-.16-1.09,6.42-.31,8.92a10.93,10.93,0,0,0-2.62-3.7c-2.53-2.42,0,5.59,0,5.59s-1-2.38-7.61-3.55,2.7,5.18,2.7,5.18a83.12,83.12,0,0,0-8.71-2c-1.46-.24-1.58.12-1.1.72l-.95.61-3.06,2a41.61,41.61,0,0,0,2-9.06c.5-5-6.49,6.28-6.49,6.28s1-3.79,0-6.28-4,3.32-4,3.32,3.5-13.81,0-22.79-7.45,22.79-7.45,22.79-.54-12.31-5-12.56c-3.63-.2-1.4,8.11-.4,11.32a13.87,13.87,0,0,0-3.32-4.67c-3.23-3.08,0,7.11,0,7.11s-1.27-3-9.69-4.52,3.43,6.6,3.43,6.6a105.14,105.14,0,0,0-11.09-2.54c-5.6-.92,4.26,5.17,4.26,5.17H76S50.36,356.2,70,364.32ZM192.42,348a24.9,24.9,0,0,0,3.21,2.41h-3.21Z" style="fill:#fff"></path><path d="M312.57,365.53C301.21,370.79,273,376.31,273,376.31c-4.49.61,1.59,6.36,32.77,3.51l53.36-29.43H256.88c3.42,1.76,27.78,5.82,41.64,5.82S323.93,360.26,312.57,365.53Z" style="fill:#fff"></path><path d="M394.26,350.39h20.16C404.3,350,394.26,350.39,394.26,350.39Z" style="fill:#fff"></path><path d="M427.52,351.56l-47.89,30.86c6.07-.23,12.42-.38,18.57-.53,26.53-.64,16.9-12.15,18.7-16.21s16.86-3.39,18.06-10.16C435.3,353.6,432.17,352.36,427.52,351.56Z" style="fill:#fff"></path></g></g><g id="freepik--Sign--inject-4"><path d="M134.31,182.2v80.66H251.64V182.2Zm10.9,9.91a3.24,3.24,0,1,1,3.24-3.24A3.24,3.24,0,0,1,145.21,192.11Zm95.42,0a3.24,3.24,0,1,1,3.24-3.24A3.25,3.25,0,0,1,240.63,192.11Z" style="fill:#16A34A;stroke:#2e353a;stroke-miterlimit:10"></path><path d="M243.87,188.87a3.24,3.24,0,1,1-3.24-3.24H145.21a3.24,3.24,0,1,1-3.24,3.24,3.24,3.24,0,0,1,3.24-3.24h-7.52v72.78H247.15V185.63h-6.52A3.24,3.24,0,0,1,243.87,188.87Z" style="fill:#2e353a"></path><path d="M145.21,151a4.71,4.71,0,1,0,4.72,4.71A4.71,4.71,0,0,0,145.21,151Zm0,7.85a3.14,3.14,0,1,1,3.15-3.14A3.15,3.15,0,0,1,145.21,158.88Z" style="fill:#fff;stroke:#2e353a;stroke-linecap:round;stroke-linejoin:round;stroke-width:0.916642px"></path><path d="M145.21,162.31a4.72,4.72,0,1,0,4.72,4.71A4.71,4.71,0,0,0,145.21,162.31Zm0,7.86a3.15,3.15,0,1,1,3.15-3.15A3.15,3.15,0,0,1,145.21,170.17Z" style="fill:#fff;stroke:#2e353a;stroke-linecap:round;stroke-linejoin:round;stroke-width:0.916642px"></path><path d="M145.21,172.28a4.71,4.71,0,1,0,4.72,4.71A4.71,4.71,0,0,0,145.21,172.28Zm0,7.85a3.14,3.14,0,1,1,3.15-3.14A3.15,3.15,0,0,1,145.21,180.13Z" style="fill:#fff;stroke:#2e353a;stroke-linecap:round;stroke-linejoin:round;stroke-width:0.916642px"></path><path d="M145.21,166.51h0a.83.83,0,0,1-.83-.83v-7.77a.83.83,0,0,1,.83-.83h0a.84.84,0,0,1,.84.83v7.77A.84.84,0,0,1,145.21,166.51Z" style="fill:#fff;stroke:#2e353a;stroke-linecap:round;stroke-linejoin:round;stroke-width:0.916642px"></path><path d="M145.21,177.2h0a.83.83,0,0,1-.83-.83V168.6a.83.83,0,0,1,.83-.83h0a.84.84,0,0,1,.84.83v7.77A.84.84,0,0,1,145.21,177.2Z" style="fill:#fff;stroke:#2e353a;stroke-linecap:round;stroke-linejoin:round;stroke-width:0.916642px"></path><path d="M145.21,187.91h0a.83.83,0,0,1-.83-.83v-7.77a.83.83,0,0,1,.83-.83h0a.84.84,0,0,1,.84.83v7.77A.84.84,0,0,1,145.21,187.91Z" style="fill:#fff;stroke:#2e353a;stroke-linecap:round;stroke-linejoin:round;stroke-width:0.916642px"></path><path d="M240.63,151a4.71,4.71,0,1,0,4.72,4.71A4.71,4.71,0,0,0,240.63,151Zm0,7.85a3.14,3.14,0,1,1,3.15-3.14A3.15,3.15,0,0,1,240.63,158.88Z" style="fill:#fff;stroke:#2e353a;stroke-linecap:round;stroke-linejoin:round;stroke-width:0.916642px"></path><path d="M240.63,162.31a4.72,4.72,0,1,0,4.72,4.71A4.71,4.71,0,0,0,240.63,162.31Zm0,7.86a3.15,3.15,0,1,1,3.15-3.15A3.15,3.15,0,0,1,240.63,170.17Z" style="fill:#fff;stroke:#2e353a;stroke-linecap:round;stroke-linejoin:round;stroke-width:0.916642px"></path><path d="M240.63,172.28a4.71,4.71,0,1,0,4.72,4.71A4.71,4.71,0,0,0,240.63,172.28Zm0,7.85a3.14,3.14,0,1,1,3.15-3.14A3.15,3.15,0,0,1,240.63,180.13Z" style="fill:#fff;stroke:#2e353a;stroke-linecap:round;stroke-linejoin:round;stroke-width:0.916642px"></path><path d="M240.63,166.51h0a.83.83,0,0,1-.83-.83v-7.77a.83.83,0,0,1,.83-.83h0a.84.84,0,0,1,.84.83v7.77A.84.84,0,0,1,240.63,166.51Z" style="fill:#fff;stroke:#2e353a;stroke-linecap:round;stroke-linejoin:round;stroke-width:0.916642px"></path><path d="M240.63,177.2h0a.83.83,0,0,1-.83-.83V168.6a.83.83,0,0,1,.83-.83h0a.84.84,0,0,1,.84.83v7.77A.84.84,0,0,1,240.63,177.2Z" style="fill:#fff;stroke:#2e353a;stroke-linecap:round;stroke-linejoin:round;stroke-width:0.916642px"></path><path d="M240.63,187.91h0a.83.83,0,0,1-.83-.83v-7.77a.83.83,0,0,1,.83-.83h0a.84.84,0,0,1,.84.83v7.77A.84.84,0,0,1,240.63,187.91Z" style="fill:#fff;stroke:#2e353a;stroke-linecap:round;stroke-linejoin:round;stroke-width:0.916642px"></path><polygon points="264.99 153.49 81.75 153.49 75.99 137.57 277.64 137.57 264.99 153.49" style="fill:#2e353a;stroke:#2e353a;stroke-linecap:round;stroke-linejoin:round;stroke-width:0.887535px"></polygon><polygon points="260.32 153.49 77.08 153.49 71.32 137.57 272.98 137.57 260.32 153.49" style="fill:#fff;stroke:#2e353a;stroke-linecap:round;stroke-linejoin:round;stroke-width:0.887535px"></polygon><polygon points="111.09 406.37 96.1 406.37 100.63 93.46 103.29 93.46 111.09 104.53 111.09 406.37" style="fill:#2e353a;stroke:#2e353a;stroke-linecap:round;stroke-linejoin:round;stroke-width:0.887535px"></polygon><polygon points="108.42 406.37 93.43 406.37 93.43 104.53 100.63 93.46 108.42 104.53 108.42 406.37" style="fill:#fff;stroke:#2e353a;stroke-linecap:round;stroke-linejoin:round;stroke-width:0.887535px"></polygon><text transform="translate(157.08 220.34)" style="font-size:35.70505905151367px;fill:#fff;font-family:Lato-Bold, Lato;font-weight:700"><tspan style="letter-spacing:-0.006482143389430641em">F</tspan><tspan x="19.98" y="0">OR</tspan><tspan x="-5.58" y="28.98" style="letter-spacing:-0.014495932474254175em">S</tspan><tspan x="13.49" y="28.98">ALE</tspan></text><line x1="96.1" y1="406.37" x2="96.1" y2="387.12" style="fill:none;stroke:#2e353a;stroke-linecap:round;stroke-linejoin:round;stroke-width:0.887535px"></line><line x1="98.72" y1="406.37" x2="98.72" y2="336.06" style="fill:none;stroke:#2e353a;stroke-linecap:round;stroke-linejoin:round;stroke-width:0.887535px"></line><line x1="96.1" y1="384.2" x2="96.1" y2="377.2" style="fill:none;stroke:#2e353a;stroke-linecap:round;stroke-linejoin:round;stroke-width:0.887535px"></line><line x1="103.59" y1="282.44" x2="103.59" y2="275.44" style="fill:none;stroke:#2e353a;stroke-linecap:round;stroke-linejoin:round;stroke-width:0.887535px"></line><line x1="96.1" y1="107.52" x2="96.1" y2="100.52" style="fill:none;stroke:#2e353a;stroke-linecap:round;stroke-linejoin:round;stroke-width:0.887535px"></line><line x1="96.1" y1="116.74" x2="96.1" y2="109.74" style="fill:none;stroke:#2e353a;stroke-linecap:round;stroke-linejoin:round;stroke-width:0.887535px"></line><line x1="103.59" y1="326.82" x2="103.59" y2="290.3" style="fill:none;stroke:#2e353a;stroke-linecap:round;stroke-linejoin:round;stroke-width:0.887535px"></line><line x1="72.79" y1="140.89" x2="78.04" y2="140.89" style="fill:none;stroke:#2e353a;stroke-linecap:round;stroke-linejoin:round;stroke-width:0.887535px"></line><line x1="75.12" y1="143.52" x2="87.67" y2="143.52" style="fill:none;stroke:#2e353a;stroke-linecap:round;stroke-linejoin:round;stroke-width:0.887535px"></line><line x1="121.77" y1="143.52" x2="134.31" y2="143.52" style="fill:none;stroke:#2e353a;stroke-linecap:round;stroke-linejoin:round;stroke-width:0.887535px"></line><line x1="128.04" y1="146.44" x2="132.45" y2="146.44" style="fill:none;stroke:#2e353a;stroke-linecap:round;stroke-linejoin:round;stroke-width:0.887535px"></line><line x1="150.31" y1="146.44" x2="176.49" y2="146.44" style="fill:none;stroke:#2e353a;stroke-linecap:round;stroke-linejoin:round;stroke-width:0.887535px"></line><line x1="266.21" y1="146.44" x2="261.83" y2="146.44" style="fill:none;stroke:#2e353a;stroke-linecap:round;stroke-linejoin:round;stroke-width:0.887535px"></line><line x1="264.16" y1="148.48" x2="249.29" y2="148.48" style="fill:none;stroke:#2e353a;stroke-linecap:round;stroke-linejoin:round;stroke-width:0.887535px"></line><path d="M63,411h9.81S55,395.12,63,396.74,78,404,78,404s-9.46-8.9-2.92-7.28,6.27,4.3,6.27,4.3.51-19.23,6.28-13.92a17,17,0,0,1,5.76,11.49s12.33-15.25,15-14.41,2.67,10.17,2.67,10.17,20.71-16.88,16.95-7.25-6.27,13.25-6.27,13.25,9.72-8.59,8.48-3.63a41.71,41.71,0,0,1-2.21,7s14.62,4.58,12.46,4.57-6.19,2.77-6.19,2.77,24.69-4,20,0-43.24,3.33-43.24,3.33S129.87,419,121.77,419s-20.84-3.34-20.84-3.34-19,4-25.81,3.34,12.55-3.34,12.55-3.34S50.83,415.7,63,411Z" style="fill:#2e353a;stroke:#2e353a;stroke-linecap:round;stroke-linejoin:round;stroke-width:0.916642px"></path></g></svg>